<?xml version="1.0" encoding="UTF-8"?> <svg xmlns="http://www.w3.org/2000/svg" width="40" height="40" viewBox="0 0 40 40" fill="none"><path d="M0 20C0 8.95431 8.95431 0 20 0V0C31.0457 0 40 8.95431 40 20V20C40 31.0457 31.0457 40 20 40V40C8.95431 40 0 31.0457 0 20V20Z" fill="#C32AA3"></path><path d="M20 16.4062C20.5 16.4062 20.9688 16.5 21.4062 16.6875C21.8438 16.875 22.224 17.1302 22.5469 17.4531C22.8698 17.776 23.125 18.1562 23.3125 18.5938C23.5 19.0312 23.5938 19.5 23.5938 20C23.5938 20.5 23.5 20.9635 23.3125 21.3906C23.125 21.8281 22.8698 22.2135 22.5469 22.5469C22.224 22.8698 21.8438 23.125 21.4062 23.3125C20.9688 23.5 20.5 23.5938 20 23.5938C19.5 23.5938 19.0365 23.5 18.6094 23.3125C18.1719 23.125 17.7865 22.8698 17.4531 22.5469C17.1302 22.2135 16.875 21.8281 16.6875 21.3906C16.5 20.9531 16.4062 20.4896 16.4062 20C16.4062 19.5 16.5 19.0312 16.6875 18.5938C16.875 18.1562 17.1302 17.776 17.4531 17.4531C17.7865 17.1302 18.1719 16.875 18.6094 16.6875C19.0469 16.5 19.5104 16.4062 20 16.4062ZM20 22.3281C20.6458 22.3281 21.1979 22.1042 21.6562 21.6562C22.1146 21.1979 22.3438 20.6458 22.3438 20C22.3438 19.3542 22.1146 18.8021 21.6562 18.3438C21.1979 17.8854 20.6458 17.6562 20 17.6562C19.3542 17.6562 18.8021 17.8854 18.3438 18.3438C17.8958 18.8021 17.6719 19.3542 17.6719 20C17.6719 20.6458 17.901 21.1979 18.3594 21.6562C18.8177 22.1042 19.3646 22.3281 20 22.3281ZM24.5781 16.2656C24.5781 16.026 24.4948 15.8281 24.3281 15.6719C24.1719 15.5052 23.974 15.4219 23.7344 15.4219C23.5052 15.4219 23.3073 15.5052 23.1406 15.6719C22.9844 15.8281 22.9062 16.026 22.9062 16.2656C22.9062 16.4948 22.9844 16.6927 23.1406 16.8594C23.3073 17.0156 23.5052 17.0938 23.7344 17.0938C23.974 17.0938 24.1719 17.0156 24.3281 16.8594C24.4948 16.6927 24.5781 16.4948 24.5781 16.2656ZM26.9531 17.1094C26.974 17.401 26.9896 17.8125 27 18.3438C27 18.8646 27 19.4167 27 20C27 20.5729 27 21.125 27 21.6562C26.9896 22.1875 26.974 22.599 26.9531 22.8906C26.9219 23.4427 26.8281 23.9688 26.6719 24.4688C26.5156 24.9583 26.2344 25.4062 25.8281 25.8125C25.4115 26.2292 24.9583 26.5156 24.4688 26.6719C23.9792 26.8281 23.4531 26.9219 22.8906 26.9531C22.599 26.9635 22.1875 26.974 21.6562 26.9844C21.1354 26.9948 20.5833 27 20 27C19.4271 27 18.875 26.9948 18.3438 26.9844C17.8125 26.974 17.401 26.9635 17.1094 26.9531C16.5469 26.9219 16.0208 26.8281 15.5312 26.6719C15.0417 26.5156 14.5885 26.2292 14.1719 25.8125C13.7656 25.4062 13.4844 24.9583 13.3281 24.4688C13.1719 23.9688 13.0781 23.4427 13.0469 22.8906C13.026 22.599 13.0156 22.1875 13.0156 21.6562C13.0052 21.125 13 20.5729 13 20C13 19.4167 13.0052 18.8594 13.0156 18.3281C13.0156 17.8073 13.026 17.401 13.0469 17.1094C13.0781 16.5469 13.1719 16.0208 13.3281 15.5312C13.4844 15.0312 13.7656 14.5781 14.1719 14.1719C14.5885 13.7656 15.0417 13.4844 15.5312 13.3281C16.0312 13.1615 16.5573 13.0677 17.1094 13.0469C17.401 13.026 17.8125 13.0104 18.3438 13C18.875 13 19.4271 13 20 13C20.5833 13 21.1354 13 21.6562 13C22.1875 13.0104 22.599 13.026 22.8906 13.0469C23.4531 13.0781 23.9792 13.1719 24.4688 13.3281C24.9688 13.4844 25.4219 13.7656 25.8281 14.1719C26.2344 14.5885 26.5156 15.0417 26.6719 15.5312C26.8385 16.0208 26.9323 16.5469 26.9531 17.1094ZM25.4688 24.125C25.5521 23.8958 25.6146 23.599 25.6562 23.2344C25.6979 22.8698 25.724 22.4896 25.7344 22.0938C25.7552 21.6979 25.7604 21.3125 25.75 20.9375C25.75 20.5625 25.75 20.25 25.75 20C25.75 19.7396 25.75 19.4219 25.75 19.0469C25.7604 18.6719 25.7552 18.2865 25.7344 17.8906C25.724 17.4948 25.6979 17.1198 25.6562 16.7656C25.6146 16.401 25.5521 16.1042 25.4688 15.875C25.3438 15.5625 25.1667 15.2917 24.9375 15.0625C24.7083 14.8333 24.4375 14.6562 24.125 14.5312C23.8958 14.4479 23.599 14.3854 23.2344 14.3438C22.8802 14.3021 22.5052 14.276 22.1094 14.2656C21.7135 14.2552 21.3281 14.25 20.9531 14.25C20.5781 14.25 20.2604 14.25 20 14.25C19.75 14.25 19.4375 14.25 19.0625 14.25C18.6875 14.2396 18.3021 14.2448 17.9062 14.2656C17.5104 14.276 17.1302 14.3021 16.7656 14.3438C16.401 14.3854 16.1042 14.4479 15.875 14.5312C15.5625 14.6562 15.2917 14.8333 15.0625 15.0625C14.8333 15.2917 14.6615 15.5625 14.5469 15.875C14.4531 16.1042 14.3854 16.401 14.3438 16.7656C14.3021 17.1198 14.276 17.4948 14.2656 17.8906C14.2552 18.2865 14.25 18.6719 14.25 19.0469C14.2604 19.4219 14.2656 19.7396 14.2656 20C14.2656 20.25 14.2604 20.5625 14.25 20.9375C14.25 21.3125 14.2552 21.6979 14.2656 22.0938C14.276 22.4896 14.3021 22.8698 14.3438 23.2344C14.3854 23.599 14.4531 23.8958 14.5469 24.125C14.6719 24.4375 14.849 24.7083 15.0781 24.9375C15.3073 25.1667 15.5729 25.3385 15.875 25.4531C16.1042 25.5469 16.401 25.6146 16.7656 25.6562C17.1302 25.6979 17.5104 25.724 17.9062 25.7344C18.3021 25.7448 18.6875 25.75 19.0625 25.75C19.4375 25.7396 19.75 25.7344 20 25.7344C20.2604 25.7344 20.5781 25.7396 20.9531 25.75C21.3281 25.75 21.7135 25.7448 22.1094 25.7344C22.5052 25.724 22.8802 25.6979 23.2344 25.6562C23.599 25.6146 23.8958 25.5469 24.125 25.4531C24.4375 25.3281 24.7083 25.151 24.9375 24.9219C25.1667 24.6927 25.3438 24.4271 25.4688 24.125Z" fill="white"></path></svg> 