<?xml version="1.0" encoding="UTF-8"?> <svg xmlns="http://www.w3.org/2000/svg" width="40" height="40" viewBox="0 0 40 40" fill="none"><path d="M0 20C0 8.95431 8.95431 0 20 0V0C31.0457 0 40 8.95431 40 20V20C40 31.0457 31.0457 40 20 40V40C8.95431 40 0 31.0457 0 20V20Z" fill="#0A66C2"></path><path d="M16.1406 26H13.2344V16.6562H16.1406V26ZM14.6875 15.375C14.2188 15.375 13.8177 15.2083 13.4844 14.875C13.1615 14.5417 13 14.1458 13 13.6875C13 13.2188 13.1615 12.8229 13.4844 12.5C13.8177 12.1667 14.2188 12 14.6875 12C15.1458 12 15.5365 12.1667 15.8594 12.5C16.1927 12.8229 16.3594 13.2188 16.3594 13.6875C16.3594 14.1458 16.1927 14.5417 15.8594 14.875C15.5365 15.2083 15.1458 15.375 14.6875 15.375ZM27 26H24.0938V21.4531C24.0938 20.9115 24.026 20.3646 23.8906 19.8125C23.7656 19.25 23.3333 18.9688 22.5938 18.9688C21.8333 18.9688 21.349 19.2188 21.1406 19.7188C20.9427 20.2083 20.8438 20.7604 20.8438 21.375V26H17.9531V16.6562H20.7344V17.9219H20.7812C20.9688 17.5573 21.2969 17.2188 21.7656 16.9062C22.2344 16.5833 22.8177 16.4219 23.5156 16.4219C24.2552 16.4219 24.8542 16.5365 25.3125 16.7656C25.7604 16.9948 26.1094 17.3073 26.3594 17.7031C26.6094 18.099 26.7812 18.5677 26.875 19.1094C26.9583 19.651 27 20.2344 27 20.8594V26Z" fill="white"></path></svg> 