<?xml version="1.0" encoding="UTF-8"?> <svg xmlns="http://www.w3.org/2000/svg" width="40" height="40" viewBox="0 0 40 40" fill="none"><path d="M0 20C0 8.95431 8.95431 0 20 0V0C31.0457 0 40 8.95431 40 20V20C40 31.0457 31.0457 40 20 40V40C8.95431 40 0 31.0457 0 20V20Z" fill="#1877F2"></path><path d="M23.7188 21H21.3906V28H18.2656V21H15.7188V18.1094H18.2656V15.8906C18.2656 15.2656 18.3542 14.7135 18.5312 14.2344C18.7083 13.7448 18.9583 13.3385 19.2812 13.0156C19.6146 12.6823 20.0156 12.4271 20.4844 12.25C20.9531 12.0833 21.474 12 22.0469 12C22.5885 12 23.0938 12.0365 23.5625 12.1094C24.0417 12.1719 24.2812 12.2031 24.2812 12.2031V14.6562H23.0156C22.401 14.6562 21.974 14.8177 21.7344 15.1406C21.5052 15.4635 21.3906 15.8229 21.3906 16.2188V18.1094H24.1719L23.7188 21Z" fill="white"></path></svg> 