<?xml version="1.0" encoding="UTF-8"?> <svg xmlns="http://www.w3.org/2000/svg" width="40" height="40" viewBox="0 0 40 40" fill="none"><path d="M0 20C0 8.95431 8.95431 0 20 0V0C31.0457 0 40 8.95431 40 20V20C40 31.0457 31.0457 40 20 40V40C8.95431 40 0 31.0457 0 20V20Z" fill="#CB2027"></path><path d="M28.1719 15.875C28.2656 16.2083 28.3385 16.6146 28.3906 17.0938C28.4323 17.5625 28.4635 18.0156 28.4844 18.4531C28.5052 18.8802 28.5208 19.2448 28.5312 19.5469C28.5312 19.8594 28.5312 20.0156 28.5312 20.0156C28.5312 20.0156 28.5312 20.1667 28.5312 20.4688C28.5208 20.7708 28.5052 21.1406 28.4844 21.5781C28.4635 22.0156 28.4323 22.4688 28.3906 22.9375C28.3385 23.4062 28.2656 23.8073 28.1719 24.1406C28.0781 24.5156 27.8958 24.8385 27.625 25.1094C27.3542 25.3698 27.0365 25.5469 26.6719 25.6406C26.3385 25.7344 25.8021 25.8021 25.0625 25.8438C24.3229 25.8958 23.5781 25.9323 22.8281 25.9531C22.0781 25.974 21.4219 25.9896 20.8594 26C20.2865 26 20 26 20 26C20 26 19.7135 26 19.1406 26C18.5781 25.9896 17.9219 25.974 17.1719 25.9531C16.4219 25.9323 15.6771 25.8958 14.9375 25.8438C14.1979 25.8021 13.6615 25.7344 13.3281 25.6406C12.9635 25.5469 12.6458 25.3698 12.375 25.1094C12.1042 24.8385 11.9219 24.5156 11.8281 24.1406C11.7344 23.8073 11.6615 23.4062 11.6094 22.9375C11.5677 22.4688 11.5365 22.0156 11.5156 21.5781C11.4948 21.1406 11.4792 20.7708 11.4688 20.4688C11.4688 20.1667 11.4688 20.0156 11.4688 20.0156C11.4688 20.0156 11.4688 19.8594 11.4688 19.5469C11.4792 19.2448 11.4948 18.8802 11.5156 18.4531C11.5365 18.0156 11.5677 17.5625 11.6094 17.0938C11.6615 16.6146 11.7344 16.2083 11.8281 15.875C11.9219 15.5104 12.1042 15.1927 12.375 14.9219C12.6458 14.6406 12.9635 14.4531 13.3281 14.3594C13.6615 14.2656 14.1979 14.1979 14.9375 14.1562C15.6771 14.1042 16.4219 14.0677 17.1719 14.0469C17.9219 14.026 18.5781 14.0104 19.1406 14C19.7135 14 20 14 20 14C20 14 20.2865 14 20.8594 14C21.4219 14.0104 22.0781 14.026 22.8281 14.0469C23.5781 14.0677 24.3229 14.1042 25.0625 14.1562C25.8021 14.1979 26.3385 14.2656 26.6719 14.3594C27.0365 14.4531 27.3542 14.6406 27.625 14.9219C27.8958 15.1927 28.0781 15.5104 28.1719 15.875ZM18.25 22.5469L22.7188 20.0156L18.25 17.4688V22.5469Z" fill="white"></path></svg> 