<?xml version="1.0" encoding="UTF-8"?> <svg xmlns="http://www.w3.org/2000/svg" width="64" height="64" viewBox="0 0 64 64" fill="none"><g clip-path="url(#clip0_22150_26774)"><path fill-rule="evenodd" clip-rule="evenodd" d="M48.8749 28.1251C48.8749 29.1606 49.7143 30.0001 50.7499 30.0001H52.6248V37.6251H50.7499C49.7954 37.6251 48.9932 38.3421 48.8866 39.2906L47.0406 55.7154C47.0398 55.7223 47.0391 55.7292 47.0384 55.7362C47.0127 55.99 46.9999 56.2449 46.9999 56.5C46.9999 60.6421 50.3577 64 54.4998 64C58.642 64 61.9998 60.6422 61.9998 56.5C61.9998 56.2421 61.9867 55.9874 61.9613 55.7362L61.9602 55.7256L61.9591 55.7154L60.1131 39.2906C60.0065 38.3421 59.2043 37.6251 58.2498 37.6251H56.3748V30.0001H58.2498C59.2854 30.0001 60.1248 29.1606 60.1248 28.1251V1.87517C60.1248 0.839634 59.2854 0.000167847 58.2498 0.000167847H50.7499C49.7143 0.000167847 48.8749 0.839634 48.8749 1.87517V28.1251ZM52.6249 26.2501V3.75017H56.3748V26.2501H52.6249ZM50.7499 56.5C50.7499 58.5711 52.4288 60.25 54.4998 60.25C56.5709 60.25 58.2498 58.5711 58.2498 56.5C58.2498 56.3727 58.2435 56.247 58.2313 56.1227L56.5738 41.3751H52.4259L50.7684 56.1228C50.7561 56.2481 50.7499 56.374 50.7499 56.5Z" fill="#C27843"></path><path fill-rule="evenodd" clip-rule="evenodd" d="M48.8749 28.1251C48.8749 29.1606 49.7143 30.0001 50.7499 30.0001H52.6248V37.6251H50.7499C49.7954 37.6251 48.9932 38.3421 48.8866 39.2906L47.0406 55.7154C47.0398 55.7223 47.0391 55.7292 47.0384 55.7362C47.0127 55.99 46.9999 56.2449 46.9999 56.5C46.9999 60.6421 50.3577 64 54.4998 64C58.642 64 61.9998 60.6422 61.9998 56.5C61.9998 56.2421 61.9867 55.9874 61.9613 55.7362L61.9602 55.7256L61.9591 55.7154L60.1131 39.2906C60.0065 38.3421 59.2043 37.6251 58.2498 37.6251H56.3748V30.0001H58.2498C59.2854 30.0001 60.1248 29.1606 60.1248 28.1251V1.87517C60.1248 0.839634 59.2854 0.000167847 58.2498 0.000167847H50.7499C49.7143 0.000167847 48.8749 0.839634 48.8749 1.87517V28.1251ZM52.6249 26.2501V3.75017H56.3748V26.2501H52.6249ZM50.7499 56.5C50.7499 58.5711 52.4288 60.25 54.4998 60.25C56.5709 60.25 58.2498 58.5711 58.2498 56.5C58.2498 56.3727 58.2435 56.247 58.2313 56.1227L56.5738 41.3751H52.4259L50.7684 56.1228C50.7561 56.2481 50.7499 56.374 50.7499 56.5Z" fill="#E0DED5"></path><path fill-rule="evenodd" clip-rule="evenodd" d="M11.375 20.625V37.6251H13.25C14.2045 37.6251 15.0066 38.3421 15.1132 39.2906L16.9592 55.7154L16.9603 55.7249L16.9615 55.7362C16.9868 55.9874 17 56.2421 17 56.5C17 60.6422 13.6421 64 9.49998 64C5.35785 64 2.00002 60.6422 2 56.5001C2 56.245 2.01285 55.99 2.03851 55.7362C2.03921 55.7292 2.03995 55.7223 2.04073 55.7154L3.88673 39.2906C3.99333 38.3421 4.7955 37.6251 5.74999 37.6251H7.62497V20.625C7.62497 19.5895 8.46444 18.75 9.49997 18.75C10.5355 18.75 11.375 19.5895 11.375 20.625ZM9.49998 60.25C7.4289 60.25 5.75 58.5711 5.75 56.5C5.75 56.374 5.75619 56.2481 5.76855 56.1228L7.42607 41.3751H11.5739L13.2314 56.1227C13.2437 56.247 13.25 56.3727 13.25 56.5C13.25 58.5711 11.5711 60.25 9.49998 60.25Z" fill="#C27843"></path><path fill-rule="evenodd" clip-rule="evenodd" d="M11.375 20.625V37.6251H13.25C14.2045 37.6251 15.0066 38.3421 15.1132 39.2906L16.9592 55.7154L16.9603 55.7249L16.9615 55.7362C16.9868 55.9874 17 56.2421 17 56.5C17 60.6422 13.6421 64 9.49998 64C5.35785 64 2.00002 60.6422 2 56.5001C2 56.245 2.01285 55.99 2.03851 55.7362C2.03921 55.7292 2.03995 55.7223 2.04073 55.7154L3.88673 39.2906C3.99333 38.3421 4.7955 37.6251 5.74999 37.6251H7.62497V20.625C7.62497 19.5895 8.46444 18.75 9.49997 18.75C10.5355 18.75 11.375 19.5895 11.375 20.625ZM9.49998 60.25C7.4289 60.25 5.75 58.5711 5.75 56.5C5.75 56.374 5.75619 56.2481 5.76855 56.1228L7.42607 41.3751H11.5739L13.2314 56.1227C13.2437 56.247 13.25 56.3727 13.25 56.5C13.25 58.5711 11.5711 60.25 9.49998 60.25Z" fill="#E0DED5"></path><path fill-rule="evenodd" clip-rule="evenodd" d="M30.1249 37.6251V24.3751C30.1249 21.2686 32.6434 18.7501 35.7499 18.7501C36.7854 18.7501 37.6249 19.5896 37.6249 20.6251C37.6249 21.6607 36.7854 22.5001 35.7499 22.5001C34.7144 22.5001 33.8749 23.3396 33.8749 24.3751V37.6251H35.7499C36.7044 37.6251 37.5066 38.3421 37.6132 39.2906L39.4592 55.7154C39.4596 55.719 39.46 55.7226 39.4604 55.7262L39.4614 55.7362C39.4868 55.9874 39.4999 56.2421 39.4999 56.5C39.4999 60.6422 36.1421 64 31.9999 64C27.8578 64 24.5 60.6422 24.4999 56.5001C24.4999 56.245 24.5128 55.99 24.5384 55.7362L24.5395 55.7259L24.5407 55.7154L26.3867 39.2906C26.4933 38.3421 27.2954 37.6251 28.2499 37.6251H30.1249ZM28.2499 56.5C28.2499 58.5711 29.9288 60.25 31.9999 60.25C34.071 60.25 35.7499 58.5711 35.7499 56.5C35.7499 56.3727 35.7436 56.247 35.7313 56.1227L34.0738 41.3751H29.926L28.2685 56.1228C28.2561 56.2481 28.2499 56.374 28.2499 56.5Z" fill="#C27843"></path><path fill-rule="evenodd" clip-rule="evenodd" d="M30.1249 37.6251V24.3751C30.1249 21.2686 32.6434 18.7501 35.7499 18.7501C36.7854 18.7501 37.6249 19.5896 37.6249 20.6251C37.6249 21.6607 36.7854 22.5001 35.7499 22.5001C34.7144 22.5001 33.8749 23.3396 33.8749 24.3751V37.6251H35.7499C36.7044 37.6251 37.5066 38.3421 37.6132 39.2906L39.4592 55.7154C39.4596 55.719 39.46 55.7226 39.4604 55.7262L39.4614 55.7362C39.4868 55.9874 39.4999 56.2421 39.4999 56.5C39.4999 60.6422 36.1421 64 31.9999 64C27.8578 64 24.5 60.6422 24.4999 56.5001C24.4999 56.245 24.5128 55.99 24.5384 55.7362L24.5395 55.7259L24.5407 55.7154L26.3867 39.2906C26.4933 38.3421 27.2954 37.6251 28.2499 37.6251H30.1249ZM28.2499 56.5C28.2499 58.5711 29.9288 60.25 31.9999 60.25C34.071 60.25 35.7499 58.5711 35.7499 56.5C35.7499 56.3727 35.7436 56.247 35.7313 56.1227L34.0738 41.3751H29.926L28.2685 56.1228C28.2561 56.2481 28.2499 56.374 28.2499 56.5Z" fill="#E0DED5"></path><path fill-rule="evenodd" clip-rule="evenodd" d="M13.25 9.37516C13.25 12.4817 10.7315 15.0002 7.62499 15.0002C4.51846 15.0002 2 12.4817 2 9.37516V5.62517C2 2.51865 4.51846 0.000184059 7.62499 0.000184059C10.7315 0.000184059 13.25 2.51863 13.25 5.62515H41.3749C42.4104 5.62515 43.2499 6.46462 43.2499 7.50015C43.2499 8.53568 42.4104 9.37515 41.3749 9.37515L13.25 9.37516ZM9.49997 7.50015C9.49997 7.50206 9.49997 7.50397 9.49998 7.50589V9.37516C9.49998 10.4106 8.66045 11.2502 7.62499 11.2502C6.58953 11.2502 5.75 10.4106 5.75 9.37516V5.62517C5.75 4.58971 6.58953 3.75018 7.62499 3.75018C8.66045 3.75018 9.49998 4.58971 9.49998 5.62517V7.49442C9.49997 7.49633 9.49997 7.49824 9.49997 7.50015Z" fill="#C27843"></path><path fill-rule="evenodd" clip-rule="evenodd" d="M13.25 9.37516C13.25 12.4817 10.7315 15.0002 7.62499 15.0002C4.51846 15.0002 2 12.4817 2 9.37516V5.62517C2 2.51865 4.51846 0.000184059 7.62499 0.000184059C10.7315 0.000184059 13.25 2.51863 13.25 5.62515H41.3749C42.4104 5.62515 43.2499 6.46462 43.2499 7.50015C43.2499 8.53568 42.4104 9.37515 41.3749 9.37515L13.25 9.37516ZM9.49997 7.50015C9.49997 7.50206 9.49997 7.50397 9.49998 7.50589V9.37516C9.49998 10.4106 8.66045 11.2502 7.62499 11.2502C6.58953 11.2502 5.75 10.4106 5.75 9.37516V5.62517C5.75 4.58971 6.58953 3.75018 7.62499 3.75018C8.66045 3.75018 9.49998 4.58971 9.49998 5.62517V7.49442C9.49997 7.49633 9.49997 7.49824 9.49997 7.50015Z" fill="#E0DED5"></path></g><defs><clipPath id="clip0_22150_26774"><rect width="64" height="64" fill="white"></rect></clipPath></defs></svg> 