<?xml version="1.0" encoding="UTF-8"?> <svg xmlns="http://www.w3.org/2000/svg" width="64" height="64" viewBox="0 0 64 64" fill="none"><g clip-path="url(#clip0_22150_26772)"><path d="M15.125 17C15.125 18.0355 14.2855 18.875 13.25 18.875C12.2144 18.875 11.375 18.0355 11.375 17V13.25C11.375 12.2144 12.2144 11.375 13.25 11.375C14.2855 11.375 15.125 12.2144 15.125 13.25V17Z" fill="#C27843"></path><path d="M15.125 17C15.125 18.0355 14.2855 18.875 13.25 18.875C12.2144 18.875 11.375 18.0355 11.375 17V13.25C11.375 12.2144 12.2144 11.375 13.25 11.375C14.2855 11.375 15.125 12.2144 15.125 13.25V17Z" fill="#E0DED5"></path><path fill-rule="evenodd" clip-rule="evenodd" d="M1.875 30.1249H35.7499C36.7854 30.1249 37.6249 29.2855 37.6249 28.2499V13.25C37.6249 12.2144 36.7854 11.375 35.7499 11.375H31.9999C26.849 11.375 22.6249 7.07975 22.6249 1.87502C22.6249 0.839483 21.7855 1.71661e-05 20.7499 1.71661e-05H13.2547L13.25 1.14441e-05L13.2453 1.71661e-05H1.875C0.839466 1.71661e-05 0 0.839483 0 1.87502V28.2499C0 29.2855 0.839466 30.1249 1.875 30.1249ZM13.25 7.625C14.2855 7.625 15.125 6.78553 15.125 5.75V3.75002H19.0077C19.9152 10.1108 25.3644 15.125 31.9999 15.125H33.8749V26.3749H15.125V24.5C15.125 23.4644 14.2855 22.625 13.25 22.625C12.2144 22.625 11.375 23.4644 11.375 24.5V26.3749H3.75V3.75002H11.375V5.75C11.375 6.78553 12.2144 7.625 13.25 7.625Z" fill="#C27843"></path><path fill-rule="evenodd" clip-rule="evenodd" d="M1.875 30.1249H35.7499C36.7854 30.1249 37.6249 29.2855 37.6249 28.2499V13.25C37.6249 12.2144 36.7854 11.375 35.7499 11.375H31.9999C26.849 11.375 22.6249 7.07975 22.6249 1.87502C22.6249 0.839483 21.7855 1.71661e-05 20.7499 1.71661e-05H13.2547L13.25 1.14441e-05L13.2453 1.71661e-05H1.875C0.839466 1.71661e-05 0 0.839483 0 1.87502V28.2499C0 29.2855 0.839466 30.1249 1.875 30.1249ZM13.25 7.625C14.2855 7.625 15.125 6.78553 15.125 5.75V3.75002H19.0077C19.9152 10.1108 25.3644 15.125 31.9999 15.125H33.8749V26.3749H15.125V24.5C15.125 23.4644 14.2855 22.625 13.25 22.625C12.2144 22.625 11.375 23.4644 11.375 24.5V26.3749H3.75V3.75002H11.375V5.75C11.375 6.78553 12.2144 7.625 13.25 7.625Z" fill="#E0DED5"></path><path d="M24.4999 52.6248C25.5355 52.6248 26.3749 51.7854 26.3749 50.7498V46.9999C26.3749 45.9643 25.5355 45.1249 24.4999 45.1249C23.4644 45.1249 22.6249 45.9643 22.6249 46.9999V50.7498C22.6249 51.7854 23.4644 52.6248 24.4999 52.6248Z" fill="#C27843"></path><path d="M24.4999 52.6248C25.5355 52.6248 26.3749 51.7854 26.3749 50.7498V46.9999C26.3749 45.9643 25.5355 45.1249 24.4999 45.1249C23.4644 45.1249 22.6249 45.9643 22.6249 46.9999V50.7498C22.6249 51.7854 23.4644 52.6248 24.4999 52.6248Z" fill="#E0DED5"></path><path fill-rule="evenodd" clip-rule="evenodd" d="M15.125 62.1248C15.125 63.1604 15.9644 63.9998 17 63.9998H35.7499C36.7854 63.9998 37.6249 63.1604 37.6249 62.1248V35.7499C37.6249 34.7144 36.7854 33.8749 35.7499 33.8749H24.5053L24.4999 33.8749L24.4945 33.8749H1.875C0.839466 33.8749 0 34.7144 0 35.7499V50.7499C0 51.7854 0.839466 52.6249 1.875 52.6249H5.62499C10.8027 52.6249 15.125 56.9472 15.125 62.1248ZM22.6249 60.2498H18.7397C17.8128 53.8697 12.2381 48.8749 5.62499 48.8749H3.75V37.6249H22.6249V39.4999C22.6249 40.5354 23.4644 41.3749 24.4999 41.3749C25.5355 41.3749 26.3749 40.5354 26.3749 39.4999V37.6249H33.8749V60.2498H26.3749V58.2499C26.3749 57.2143 25.5355 56.3749 24.4999 56.3749C23.4644 56.3749 22.6249 57.2143 22.6249 58.2499V60.2498Z" fill="#C27843"></path><path fill-rule="evenodd" clip-rule="evenodd" d="M15.125 62.1248C15.125 63.1604 15.9644 63.9998 17 63.9998H35.7499C36.7854 63.9998 37.6249 63.1604 37.6249 62.1248V35.7499C37.6249 34.7144 36.7854 33.8749 35.7499 33.8749H24.5053L24.4999 33.8749L24.4945 33.8749H1.875C0.839466 33.8749 0 34.7144 0 35.7499V50.7499C0 51.7854 0.839466 52.6249 1.875 52.6249H5.62499C10.8027 52.6249 15.125 56.9472 15.125 62.1248ZM22.6249 60.2498H18.7397C17.8128 53.8697 12.2381 48.8749 5.62499 48.8749H3.75V37.6249H22.6249V39.4999C22.6249 40.5354 23.4644 41.3749 24.4999 41.3749C25.5355 41.3749 26.3749 40.5354 26.3749 39.4999V37.6249H33.8749V60.2498H26.3749V58.2499C26.3749 57.2143 25.5355 56.3749 24.4999 56.3749C23.4644 56.3749 22.6249 57.2143 22.6249 58.2499V60.2498Z" fill="#E0DED5"></path><path d="M52.6248 30.1249C51.5893 30.1249 50.7498 30.9644 50.7498 31.9999C50.7498 33.0354 51.5893 33.8749 52.6248 33.8749C53.6603 33.8749 54.4998 33.0354 54.4998 31.9999C54.4998 30.9644 53.6603 30.1249 52.6248 30.1249Z" fill="#C27843"></path><path d="M52.6248 30.1249C51.5893 30.1249 50.7498 30.9644 50.7498 31.9999C50.7498 33.0354 51.5893 33.8749 52.6248 33.8749C53.6603 33.8749 54.4998 33.0354 54.4998 31.9999C54.4998 30.9644 53.6603 30.1249 52.6248 30.1249Z" fill="#E0DED5"></path><path fill-rule="evenodd" clip-rule="evenodd" d="M50.7499 63.9998C49.7143 63.9998 48.8749 63.1604 48.8749 62.1248V54.4999C48.8749 51.3932 46.3565 48.8749 43.2499 48.8749C42.2143 48.8749 41.3749 48.0354 41.3749 46.9999V17C41.3749 15.9645 42.2143 15.125 43.2499 15.125C46.3565 15.125 48.8749 12.6066 48.8749 9.50001V1.87503C48.8749 0.839497 49.7143 3.05176e-05 50.7499 3.05176e-05H62.1248C63.1604 3.05176e-05 63.9998 0.839497 63.9998 1.87503V62.1248C63.9998 63.1604 63.1604 63.9998 62.1248 63.9998H50.7499ZM60.2498 33.875V60.2498H52.6249V54.4999C52.6249 49.9642 49.404 46.181 45.1249 45.3124V33.875H46.9999C48.0354 33.875 48.8749 33.0355 48.8749 32C48.8749 30.9644 48.0354 30.125 46.9999 30.125H45.1249V18.6875C49.4041 17.8188 52.6249 14.0355 52.6249 9.50001V3.75003H60.2498V30.125H58.2498C57.2143 30.125 56.3748 30.9644 56.3748 32C56.3748 33.0355 57.2143 33.875 58.2498 33.875H60.2498Z" fill="#C27843"></path><path fill-rule="evenodd" clip-rule="evenodd" d="M50.7499 63.9998C49.7143 63.9998 48.8749 63.1604 48.8749 62.1248V54.4999C48.8749 51.3932 46.3565 48.8749 43.2499 48.8749C42.2143 48.8749 41.3749 48.0354 41.3749 46.9999V17C41.3749 15.9645 42.2143 15.125 43.2499 15.125C46.3565 15.125 48.8749 12.6066 48.8749 9.50001V1.87503C48.8749 0.839497 49.7143 3.05176e-05 50.7499 3.05176e-05H62.1248C63.1604 3.05176e-05 63.9998 0.839497 63.9998 1.87503V62.1248C63.9998 63.1604 63.1604 63.9998 62.1248 63.9998H50.7499ZM60.2498 33.875V60.2498H52.6249V54.4999C52.6249 49.9642 49.404 46.181 45.1249 45.3124V33.875H46.9999C48.0354 33.875 48.8749 33.0355 48.8749 32C48.8749 30.9644 48.0354 30.125 46.9999 30.125H45.1249V18.6875C49.4041 17.8188 52.6249 14.0355 52.6249 9.50001V3.75003H60.2498V30.125H58.2498C57.2143 30.125 56.3748 30.9644 56.3748 32C56.3748 33.0355 57.2143 33.875 58.2498 33.875H60.2498Z" fill="#E0DED5"></path></g><defs><clipPath id="clip0_22150_26772"><rect width="64" height="64" fill="white"></rect></clipPath></defs></svg> 