<?xml version="1.0" encoding="UTF-8"?> <svg xmlns="http://www.w3.org/2000/svg" width="64" height="64" viewBox="0 0 64 64" fill="none"><path d="M16.8978 48.7676C17.7414 48.6486 18.5898 48.5669 19.4406 48.5225C20.4769 48.4686 21.3564 49.2641 21.4098 50.2984C21.4631 51.3326 20.668 52.2141 19.6339 52.2675C18.0435 52.3495 16.4148 52.5909 14.7928 52.9849C13.343 53.3369 11.9143 51.8052 12.4308 50.3577C12.9994 48.7638 13.4939 47.1443 13.9126 45.5046C14.1686 44.5011 15.1894 43.8952 16.1929 44.1512C17.1963 44.4072 17.8021 45.4281 17.5463 46.4315C17.3463 47.2146 17.1301 47.9935 16.8978 48.7676Z" fill="#C27843"></path><path d="M16.8978 48.7676C17.7414 48.6486 18.5898 48.5669 19.4406 48.5225C20.4769 48.4686 21.3564 49.2641 21.4098 50.2984C21.4631 51.3326 20.668 52.2141 19.6339 52.2675C18.0435 52.3495 16.4148 52.5909 14.7928 52.9849C13.343 53.3369 11.9143 51.8052 12.4308 50.3577C12.9994 48.7638 13.4939 47.1443 13.9126 45.5046C14.1686 44.5011 15.1894 43.8952 16.1929 44.1512C17.1963 44.4072 17.8021 45.4281 17.5463 46.4315C17.3463 47.2146 17.1301 47.9935 16.8978 48.7676Z" fill="#E0DED5"></path><path d="M19.1695 36.5985C19.093 37.5812 18.2716 38.3279 17.3023 38.3279C16.2043 38.3279 15.3463 37.394 15.4308 36.3071C15.6532 33.4405 15.6532 30.561 15.4308 27.6944C15.3503 26.6619 16.122 25.7597 17.1544 25.6792C18.1889 25.5997 19.089 26.3705 19.1695 27.4029C19.4072 30.4635 19.4072 33.5379 19.1695 36.5985Z" fill="#C27843"></path><path d="M19.1695 36.5985C19.093 37.5812 18.2716 38.3279 17.3023 38.3279C16.2043 38.3279 15.3463 37.394 15.4308 36.3071C15.6532 33.4405 15.6532 30.561 15.4308 27.6944C15.3503 26.6619 16.122 25.7597 17.1544 25.6792C18.1889 25.5997 19.089 26.3705 19.1695 27.4029C19.4072 30.4635 19.4072 33.5379 19.1695 36.5985Z" fill="#E0DED5"></path><path d="M14.7926 11.0147C16.4141 11.4085 18.043 11.6495 19.6339 11.7314C20.6681 11.7845 21.4633 12.666 21.4101 13.7002C21.357 14.7344 20.4736 15.5302 19.4414 15.4764C18.5904 15.4322 17.7418 15.3505 16.898 15.2316C17.1305 16.0059 17.3467 16.7849 17.5465 17.5682C17.8024 18.5717 17.1964 19.5926 16.193 19.8485C15.1901 20.1044 14.1688 19.4989 13.9128 18.495C13.494 16.8553 12.9995 15.2358 12.4309 13.6419C11.933 12.2465 13.3008 10.6525 14.7926 11.0147Z" fill="#C27843"></path><path d="M14.7926 11.0147C16.4141 11.4085 18.043 11.6495 19.6339 11.7314C20.6681 11.7845 21.4633 12.666 21.4101 13.7002C21.357 14.7344 20.4736 15.5302 19.4414 15.4764C18.5904 15.4322 17.7418 15.3505 16.898 15.2316C17.1305 16.0059 17.3467 16.7849 17.5465 17.5682C17.8024 18.5717 17.1964 19.5926 16.193 19.8485C15.1901 20.1044 14.1688 19.4989 13.9128 18.495C13.494 16.8553 12.9995 15.2358 12.4309 13.6419C11.933 12.2465 13.3008 10.6525 14.7926 11.0147Z" fill="#E0DED5"></path><path d="M31.999 12.9159C30.9815 13.438 29.9263 13.8831 28.8423 14.2476C27.861 14.5775 26.7975 14.0497 26.4673 13.068C26.1371 12.0865 26.6653 11.0232 27.6468 10.6931C28.6763 10.3472 29.6745 9.91402 30.6304 9.39836C31.051 9.17121 31.5215 9.0523 31.9995 9.05237C32.4775 9.05243 32.948 9.17147 33.3685 9.39874C34.3248 9.91488 35.3234 10.3485 36.3535 10.6947C37.335 11.025 37.863 12.0882 37.5328 13.0697C37.2026 14.051 36.1395 14.5792 35.1578 14.249C34.073 13.8842 33.0171 13.4386 31.999 12.9159Z" fill="#C27843"></path><path d="M31.999 12.9159C30.9815 13.438 29.9263 13.8831 28.8423 14.2476C27.861 14.5775 26.7975 14.0497 26.4673 13.068C26.1371 12.0865 26.6653 11.0232 27.6468 10.6931C28.6763 10.3472 29.6745 9.91402 30.6304 9.39836C31.051 9.17121 31.5215 9.0523 31.9995 9.05237C32.4775 9.05243 32.948 9.17147 33.3685 9.39874C34.3248 9.91488 35.3234 10.3485 36.3535 10.6947C37.335 11.025 37.863 12.0882 37.5328 13.0697C37.2026 14.051 36.1395 14.5792 35.1578 14.249C34.073 13.8842 33.0171 13.4386 31.999 12.9159Z" fill="#E0DED5"></path><path d="M50.2152 11.0492C50.5416 11.1525 50.8337 11.3431 51.0595 11.6005L51.2129 11.7754C51.4332 12.0265 51.5824 12.332 51.645 12.6601C51.7077 12.9883 51.6815 13.3272 51.5693 13.6419C51.0007 15.2358 50.5063 16.8553 50.0875 18.495C49.8713 19.3429 49.1086 19.907 48.272 19.907C47.0494 19.907 46.1513 18.7547 46.4539 17.5682C46.6537 16.7851 46.8699 16.0062 47.1023 15.2321C46.2587 15.3511 45.4103 15.4329 44.5595 15.4772C43.5235 15.5302 42.6438 14.7355 42.5904 13.7014C42.537 12.6671 43.3321 11.7856 44.3663 11.7322C45.9566 11.6502 47.5854 11.4089 49.2074 11.0149C49.5402 10.9341 49.8887 10.946 50.2152 11.0492Z" fill="#C27843"></path><path d="M50.2152 11.0492C50.5416 11.1525 50.8337 11.3431 51.0595 11.6005L51.2129 11.7754C51.4332 12.0265 51.5824 12.332 51.645 12.6601C51.7077 12.9883 51.6815 13.3272 51.5693 13.6419C51.0007 15.2358 50.5063 16.8553 50.0875 18.495C49.8713 19.3429 49.1086 19.907 48.272 19.907C47.0494 19.907 46.1513 18.7547 46.4539 17.5682C46.6537 16.7851 46.8699 16.0062 47.1023 15.2321C46.2587 15.3511 45.4103 15.4329 44.5595 15.4772C43.5235 15.5302 42.6438 14.7355 42.5904 13.7014C42.537 12.6671 43.3321 11.7856 44.3663 11.7322C45.9566 11.6502 47.5854 11.4089 49.2074 11.0149C49.5402 10.9341 49.8887 10.946 50.2152 11.0492Z" fill="#E0DED5"></path><path d="M44.8306 27.4014C44.911 26.369 45.8134 25.5974 46.8456 25.6777C47.878 25.7582 48.6498 26.6604 48.5694 27.6927C48.347 30.5594 48.347 33.439 48.5694 36.3057C48.6498 37.3381 47.878 38.2402 46.8456 38.3207C45.8108 38.4011 44.9109 37.6274 44.8306 36.597C44.5931 33.5364 44.5931 30.462 44.8306 27.4014Z" fill="#C27843"></path><path d="M44.8306 27.4014C44.911 26.369 45.8134 25.5974 46.8456 25.6777C47.878 25.7582 48.6498 26.6604 48.5694 27.6927C48.347 30.5594 48.347 33.439 48.5694 36.3057C48.6498 37.3381 47.878 38.2402 46.8456 38.3207C45.8108 38.4011 44.9109 37.6274 44.8306 36.597C44.5931 33.5364 44.5931 30.462 44.8306 27.4014Z" fill="#E0DED5"></path><path d="M47.8073 44.1516C48.8106 43.8955 49.8316 44.5016 50.0875 45.5051C50.5062 47.1447 51.0006 48.7641 51.5691 50.358C51.6815 50.6728 51.7077 51.0118 51.645 51.3401C51.5822 51.6684 51.4329 51.974 51.2124 52.2251C50.3331 53.2268 49.8347 53.1204 48.4556 52.8257C47.5686 52.6363 46.3174 52.369 44.3664 52.2686C43.3323 52.2155 42.537 51.334 42.5901 50.2999C42.6433 49.2657 43.5254 48.4705 44.5589 48.5236C45.4099 48.5678 46.2585 48.6495 47.1023 48.7684C46.8698 47.9941 46.6536 47.2151 46.4538 46.4319C46.1979 45.4284 46.8039 44.4075 47.8073 44.1516Z" fill="#C27843"></path><path d="M47.8073 44.1516C48.8106 43.8955 49.8316 44.5016 50.0875 45.5051C50.5062 47.1447 51.0006 48.7641 51.5691 50.358C51.6815 50.6728 51.7077 51.0118 51.645 51.3401C51.5822 51.6684 51.4329 51.974 51.2124 52.2251C50.3331 53.2268 49.8347 53.1204 48.4556 52.8257C47.5686 52.6363 46.3174 52.369 44.3664 52.2686C43.3323 52.2155 42.537 51.334 42.5901 50.2999C42.6433 49.2657 43.5254 48.4705 44.5589 48.5236C45.4099 48.5678 46.2585 48.6495 47.1023 48.7684C46.8698 47.9941 46.6536 47.2151 46.4538 46.4319C46.1979 45.4284 46.8039 44.4075 47.8073 44.1516Z" fill="#E0DED5"></path><path d="M32.0011 51.0841C33.0187 50.562 34.074 50.1169 35.158 49.7524C36.1393 49.4225 37.2028 49.9502 37.5329 50.9317C37.863 51.9132 37.3349 52.9765 36.3534 53.3066C35.3238 53.6526 34.3256 54.0858 33.3696 54.6015C32.9491 54.8286 32.4787 54.9475 32.0007 54.9474C31.5228 54.9474 31.0524 54.8284 30.6319 54.6012C29.6755 54.085 28.6768 53.6514 27.6466 53.3051C26.6651 52.9749 26.1373 51.9116 26.4675 50.9301C26.7978 49.9487 27.8613 49.4209 28.8425 49.751C29.9272 50.1159 30.983 50.5615 32.0011 51.0841Z" fill="#C27843"></path><path d="M32.0011 51.0841C33.0187 50.562 34.074 50.1169 35.158 49.7524C36.1393 49.4225 37.2028 49.9502 37.5329 50.9317C37.863 51.9132 37.3349 52.9765 36.3534 53.3066C35.3238 53.6526 34.3256 54.0858 33.3696 54.6015C32.9491 54.8286 32.4787 54.9475 32.0007 54.9474C31.5228 54.9474 31.0524 54.8284 30.6319 54.6012C29.6755 54.085 28.6768 53.6514 27.6466 53.3051C26.6651 52.9749 26.1373 51.9116 26.4675 50.9301C26.7978 49.9487 27.8613 49.4209 28.8425 49.751C29.9272 50.1159 30.983 50.5615 32.0011 51.0841Z" fill="#E0DED5"></path><path fill-rule="evenodd" clip-rule="evenodd" d="M59.2938 9.61362C60.1354 10.5702 60.3499 11.9459 59.8389 13.1162C54.5798 25.1855 54.5904 38.8372 59.8384 50.8824C60.3494 52.0504 60.1359 53.4254 59.2945 54.3854L54.0883 60.3189C53.1729 61.3633 51.6891 61.7243 50.3975 61.2168C44.0648 58.7259 38.2515 59.3819 34.4474 63.0165C33.075 64.3278 30.925 64.3278 29.5525 63.0161C25.7495 59.3816 19.9363 58.7256 13.6034 61.2165C12.3106 61.7244 10.8273 61.3631 9.91126 60.3184L4.70626 54.3864C3.86426 53.4256 3.65076 52.0506 4.16164 50.8826C6.77314 44.8895 8.09789 38.5357 8.09789 32C8.09789 25.4644 6.77314 19.1105 4.16064 13.1149C3.65014 11.9456 3.86476 10.5701 4.70789 9.61175L9.91164 3.681C10.8269 2.63675 12.3105 2.27562 13.6024 2.78312C19.9353 5.27412 25.7485 4.618 29.5526 0.983374C30.9251 -0.327751 33.0751 -0.327751 34.4474 0.983624C38.2504 4.6185 44.0638 5.27437 50.3966 2.7835C51.6891 2.27562 53.1728 2.63675 54.0889 3.68187L59.2938 9.61362ZM41.3563 56.068C44.5383 55.7698 48.0303 56.3035 51.4741 57.6126L56.2899 52.1242C50.762 39.2492 50.774 24.7225 56.2899 11.8755L51.4743 6.38725C48.0308 7.6965 44.5398 8.23112 41.3594 7.93362C37.7014 7.59162 34.5535 6.21112 32.0001 3.82987C29.4481 6.20925 26.3015 7.589 22.6441 7.93187C19.4616 8.2305 15.97 7.69637 12.5261 6.38725L7.71039 11.8756C13.2384 24.7514 13.2261 39.2776 7.71039 52.1242L12.526 57.6126C19.2749 55.0469 26.7214 55.247 32.0003 60.17C34.5523 57.7906 37.6988 56.4109 41.3563 56.068Z" fill="#C27843"></path><path fill-rule="evenodd" clip-rule="evenodd" d="M59.2938 9.61362C60.1354 10.5702 60.3499 11.9459 59.8389 13.1162C54.5798 25.1855 54.5904 38.8372 59.8384 50.8824C60.3494 52.0504 60.1359 53.4254 59.2945 54.3854L54.0883 60.3189C53.1729 61.3633 51.6891 61.7243 50.3975 61.2168C44.0648 58.7259 38.2515 59.3819 34.4474 63.0165C33.075 64.3278 30.925 64.3278 29.5525 63.0161C25.7495 59.3816 19.9363 58.7256 13.6034 61.2165C12.3106 61.7244 10.8273 61.3631 9.91126 60.3184L4.70626 54.3864C3.86426 53.4256 3.65076 52.0506 4.16164 50.8826C6.77314 44.8895 8.09789 38.5357 8.09789 32C8.09789 25.4644 6.77314 19.1105 4.16064 13.1149C3.65014 11.9456 3.86476 10.5701 4.70789 9.61175L9.91164 3.681C10.8269 2.63675 12.3105 2.27562 13.6024 2.78312C19.9353 5.27412 25.7485 4.618 29.5526 0.983374C30.9251 -0.327751 33.0751 -0.327751 34.4474 0.983624C38.2504 4.6185 44.0638 5.27437 50.3966 2.7835C51.6891 2.27562 53.1728 2.63675 54.0889 3.68187L59.2938 9.61362ZM41.3563 56.068C44.5383 55.7698 48.0303 56.3035 51.4741 57.6126L56.2899 52.1242C50.762 39.2492 50.774 24.7225 56.2899 11.8755L51.4743 6.38725C48.0308 7.6965 44.5398 8.23112 41.3594 7.93362C37.7014 7.59162 34.5535 6.21112 32.0001 3.82987C29.4481 6.20925 26.3015 7.589 22.6441 7.93187C19.4616 8.2305 15.97 7.69637 12.5261 6.38725L7.71039 11.8756C13.2384 24.7514 13.2261 39.2776 7.71039 52.1242L12.526 57.6126C19.2749 55.0469 26.7214 55.247 32.0003 60.17C34.5523 57.7906 37.6988 56.4109 41.3563 56.068Z" fill="#E0DED5"></path></svg> 