<?xml version="1.0" encoding="UTF-8"?> <svg xmlns="http://www.w3.org/2000/svg" width="1000" height="115" viewBox="0 0 1000 115" fill="none"><g clip-path="url(#clip0_75_2)"><path d="M136.214 6.13543C136.214 10.9599 135.795 17.1477 134.957 24.699C134.119 32.2503 131.763 43.1578 127.887 57.4213C126.63 61.9311 124.797 68.1715 122.388 76.1423C120.084 84.0082 118.618 89.0424 117.989 91.2449C107.725 57.3689 101.388 35.4492 98.9791 25.4856C96.5701 15.4172 95.0514 7.81349 94.4229 2.67441H70.3851C69.9662 17.8819 63.1581 47.4054 49.9609 91.2449L33.7786 33.5089C30.5316 23.021 28.9082 14.2111 28.9082 7.07934V2.67441H0V6.13543C1.67584 8.02325 3.35167 10.9599 5.02751 14.9453C6.70335 18.9307 9.16473 26.01 12.4117 36.1833C26.3421 79.9179 33.4644 106.19 33.7786 115L57.8164 112.798C67.4524 76.4045 73.056 55.5335 74.6271 50.1847C76.3029 44.8358 78.1883 39.015 80.2831 32.7223L84.8392 48.1395C94.999 82.3301 100.812 104.617 102.278 115L126.159 112.798C131.291 93.6047 137.366 72.7861 144.384 50.342C151.401 27.793 157.372 13.0574 162.294 6.13543V2.67441H136.214V6.13543Z" fill="white"></path><path d="M136.214 6.13543C136.214 10.9599 135.795 17.1477 134.957 24.699C134.119 32.2503 131.763 43.1578 127.887 57.4213C126.63 61.9311 124.797 68.1715 122.388 76.1423C120.084 84.0082 118.618 89.0424 117.989 91.2449C107.725 57.3689 101.388 35.4492 98.9791 25.4856C96.5701 15.4172 95.0514 7.81349 94.4229 2.67441H70.3851C69.9662 17.8819 63.1581 47.4054 49.9609 91.2449L33.7786 33.5089C30.5316 23.021 28.9082 14.2111 28.9082 7.07934V2.67441H0V6.13543C1.67584 8.02325 3.35167 10.9599 5.02751 14.9453C6.70335 18.9307 9.16473 26.01 12.4117 36.1833C26.3421 79.9179 33.4644 106.19 33.7786 115L57.8164 112.798C67.4524 76.4045 73.056 55.5335 74.6271 50.1847C76.3029 44.8358 78.1883 39.015 80.2831 32.7223L84.8392 48.1395C94.999 82.3301 100.812 104.617 102.278 115L126.159 112.798C131.291 93.6047 137.366 72.7861 144.384 50.342C151.401 27.793 157.372 13.0574 162.294 6.13543V2.67441H136.214V6.13543Z" fill="white"></path><path d="M218.514 114.685C235.272 114.685 249.255 109.074 260.462 97.8523C271.774 86.5253 277.43 72.2093 277.43 54.9042C277.43 39.5919 272.717 26.6917 263.29 16.2038C253.863 5.71591 240.457 0.471954 223.07 0.471954C205.683 0.471954 191.386 6.13543 180.179 17.4624C168.972 28.6844 163.368 42.4236 163.368 58.6799C163.368 74.8313 168.343 88.2034 178.294 98.7962C188.349 109.389 201.755 114.685 218.514 114.685ZM253.706 59.1518C253.706 77.8203 250.093 90.6156 242.866 97.5376C237.629 100.474 231.502 101.943 224.484 101.943C217.571 101.943 211.653 100.684 206.731 98.1669C201.808 95.5449 197.932 92.0315 195.104 87.6265C192.381 83.1167 190.339 78.2399 188.977 72.9959C187.72 67.6471 187.092 61.3019 187.092 53.9603C187.092 46.5139 188.087 39.4346 190.077 32.7223C192.172 26.01 194.79 21.0283 197.932 17.777C199.713 16.7282 202.593 15.7843 206.573 14.9453C210.554 14.0014 214.481 13.5294 218.357 13.5294C226.945 13.5294 233.963 15.7319 239.409 20.1368C244.856 24.4368 248.574 29.8381 250.564 36.3406C252.659 42.8431 253.706 50.4469 253.706 59.1518Z" fill="white"></path><path d="M218.514 114.685C235.272 114.685 249.255 109.074 260.462 97.8523C271.774 86.5253 277.43 72.2093 277.43 54.9042C277.43 39.5919 272.717 26.6917 263.29 16.2038C253.863 5.71591 240.457 0.471954 223.07 0.471954C205.683 0.471954 191.386 6.13543 180.179 17.4624C168.972 28.6844 163.368 42.4236 163.368 58.6799C163.368 74.8313 168.343 88.2034 178.294 98.7962C188.349 109.389 201.755 114.685 218.514 114.685ZM253.706 59.1518C253.706 77.8203 250.093 90.6156 242.866 97.5376C237.629 100.474 231.502 101.943 224.484 101.943C217.571 101.943 211.653 100.684 206.731 98.1669C201.808 95.5449 197.932 92.0315 195.104 87.6265C192.381 83.1167 190.339 78.2399 188.977 72.9959C187.72 67.6471 187.092 61.3019 187.092 53.9603C187.092 46.5139 188.087 39.4346 190.077 32.7223C192.172 26.01 194.79 21.0283 197.932 17.777C199.713 16.7282 202.593 15.7843 206.573 14.9453C210.554 14.0014 214.481 13.5294 218.357 13.5294C226.945 13.5294 233.963 15.7319 239.409 20.1368C244.856 24.4368 248.574 29.8381 250.564 36.3406C252.659 42.8431 253.706 50.4469 253.706 59.1518Z" fill="white"></path><path d="M344.864 114.685C361.623 114.685 375.605 109.074 386.813 97.8523C398.125 86.5253 403.78 72.2093 403.78 54.9042C403.78 39.5919 399.067 26.6917 389.641 16.2038C380.214 5.71591 366.807 0.471954 349.421 0.471954C332.034 0.471954 317.737 6.13543 306.53 17.4624C295.322 28.6844 289.719 42.4236 289.719 58.6799C289.719 74.8313 294.694 88.2034 304.644 98.7962C314.699 109.389 328.106 114.685 344.864 114.685ZM380.057 59.1518C380.057 77.8203 376.443 90.6156 369.216 97.5376C363.979 100.474 357.852 101.943 350.835 101.943C343.922 101.943 338.004 100.684 333.081 98.1669C328.158 95.5449 324.283 92.0315 321.455 87.6265C318.732 83.1167 316.689 78.2399 315.328 72.9959C314.071 67.6471 313.442 61.3019 313.442 53.9603C313.442 46.5139 314.437 39.4346 316.428 32.7223C318.522 26.01 321.141 21.0283 324.283 17.777C326.064 16.7282 328.944 15.7843 332.924 14.9453C336.904 14.0014 340.832 13.5294 344.707 13.5294C353.296 13.5294 360.313 15.7319 365.76 20.1368C371.206 24.4368 374.925 29.8381 376.915 36.3406C379.01 42.8431 380.057 50.4469 380.057 59.1518Z" fill="white"></path><path d="M344.864 114.685C361.623 114.685 375.605 109.074 386.813 97.8523C398.125 86.5253 403.78 72.2093 403.78 54.9042C403.78 39.5919 399.067 26.6917 389.641 16.2038C380.214 5.71591 366.807 0.471954 349.421 0.471954C332.034 0.471954 317.737 6.13543 306.53 17.4624C295.322 28.6844 289.719 42.4236 289.719 58.6799C289.719 74.8313 294.694 88.2034 304.644 98.7962C314.699 109.389 328.106 114.685 344.864 114.685ZM380.057 59.1518C380.057 77.8203 376.443 90.6156 369.216 97.5376C363.979 100.474 357.852 101.943 350.835 101.943C343.922 101.943 338.004 100.684 333.081 98.1669C328.158 95.5449 324.283 92.0315 321.455 87.6265C318.732 83.1167 316.689 78.2399 315.328 72.9959C314.071 67.6471 313.442 61.3019 313.442 53.9603C313.442 46.5139 314.437 39.4346 316.428 32.7223C318.522 26.01 321.141 21.0283 324.283 17.777C326.064 16.7282 328.944 15.7843 332.924 14.9453C336.904 14.0014 340.832 13.5294 344.707 13.5294C353.296 13.5294 360.313 15.7319 365.76 20.1368C371.206 24.4368 374.925 29.8381 376.915 36.3406C379.01 42.8431 380.057 50.4469 380.057 59.1518Z" fill="white"></path><path d="M437.593 2.98906C434.032 2.98906 429.947 2.88418 425.339 2.67442V6.13543C427.119 12.8477 428.01 23.2832 428.01 37.4419V78.0301C428.01 92.0839 427.119 102.467 425.339 109.179V112.64H437.593L466.502 112.798H469.487C485.512 112.798 498.133 109.704 507.35 103.516C514.787 98.5864 520.443 91.8217 524.318 83.2216C528.193 74.6215 530.131 64.9202 530.131 54.1176C530.131 36.6028 525.104 23.6502 515.049 15.2599C504.994 6.7647 489.597 2.51711 468.858 2.51711L437.593 2.98906ZM450.319 50.9713C450.319 31.5686 450.424 19.3502 450.634 14.316C460.374 14.2111 465.454 14.1587 465.873 14.1587C480.432 14.1587 490.801 17.4099 496.981 23.9125C503.265 30.3101 506.408 41.2175 506.408 56.6347C506.408 75.1984 502.899 88.1509 495.881 95.4925C490.854 98.4291 481.794 99.8974 468.701 99.8974C463.569 99.8974 457.599 99.6352 450.791 99.1108C450.476 95.6498 450.319 82.6448 450.319 60.0958V50.9713Z" fill="white"></path><path d="M437.593 2.98906C434.032 2.98906 429.947 2.88418 425.339 2.67442V6.13543C427.119 12.8477 428.01 23.2832 428.01 37.4419V78.0301C428.01 92.0839 427.119 102.467 425.339 109.179V112.64H437.593L466.502 112.798H469.487C485.512 112.798 498.133 109.704 507.35 103.516C514.787 98.5864 520.443 91.8217 524.318 83.2216C528.193 74.6215 530.131 64.9202 530.131 54.1176C530.131 36.6028 525.104 23.6502 515.049 15.2599C504.994 6.7647 489.597 2.51711 468.858 2.51711L437.593 2.98906ZM450.319 50.9713C450.319 31.5686 450.424 19.3502 450.634 14.316C460.374 14.2111 465.454 14.1587 465.873 14.1587C480.432 14.1587 490.801 17.4099 496.981 23.9125C503.265 30.3101 506.408 41.2175 506.408 56.6347C506.408 75.1984 502.899 88.1509 495.881 95.4925C490.854 98.4291 481.794 99.8974 468.701 99.8974C463.569 99.8974 457.599 99.6352 450.791 99.1108C450.476 95.6498 450.319 82.6448 450.319 60.0958V50.9713Z" fill="white"></path><path d="M546.505 109.337V112.798H568.029V109.337C567.715 101.051 567.558 90.8254 567.558 78.6594C567.558 66.3885 568.134 51.0237 569.286 32.565C588.034 82.1728 597.408 109.441 597.408 114.371L616.419 112.483C621.237 95.8071 630.087 69.43 642.97 33.3516C644.855 50.5518 645.798 68.9056 645.798 88.4131C645.798 96.1742 645.641 103.149 645.327 109.337V112.798H671.25V109.337C668.422 89.6192 666.38 70.9508 665.123 53.3311C663.971 35.6065 663.394 23.4405 663.394 16.8331C663.394 10.1208 663.447 5.66347 663.552 3.46101V0L636.686 2.83173C635.848 7.44641 633.177 17.1477 628.673 31.9357C624.169 46.7237 617.623 66.0214 609.034 89.829C596.047 56.4774 587.825 34.5052 584.368 23.9125C581.017 13.3197 578.817 5.50615 577.77 0.47195L551.847 2.5171V5.97811C552.266 11.1172 552.475 17.8819 552.475 26.2722C552.475 57.8409 550.485 85.529 546.505 109.337Z" fill="white"></path><path d="M546.505 109.337V112.798H568.029V109.337C567.715 101.051 567.558 90.8254 567.558 78.6594C567.558 66.3885 568.134 51.0237 569.286 32.565C588.034 82.1728 597.408 109.441 597.408 114.371L616.419 112.483C621.237 95.8071 630.087 69.43 642.97 33.3516C644.855 50.5518 645.798 68.9056 645.798 88.4131C645.798 96.1742 645.641 103.149 645.327 109.337V112.798H671.25V109.337C668.422 89.6192 666.38 70.9508 665.123 53.3311C663.971 35.6065 663.394 23.4405 663.394 16.8331C663.394 10.1208 663.447 5.66347 663.552 3.46101V0L636.686 2.83173C635.848 7.44641 633.177 17.1477 628.673 31.9357C624.169 46.7237 617.623 66.0214 609.034 89.829C596.047 56.4774 587.825 34.5052 584.368 23.9125C581.017 13.3197 578.817 5.50615 577.77 0.47195L551.847 2.5171V5.97811C552.266 11.1172 552.475 17.8819 552.475 26.2722C552.475 57.8409 550.485 85.529 546.505 109.337Z" fill="white"></path><path d="M741.71 75.6703C748.309 93.7095 751.608 104.932 751.608 109.337V112.798H784.915V109.337C781.878 106.924 779.154 103.673 776.745 99.5828C771.718 91.5071 762.763 69.8495 749.88 34.6101C742.967 15.7319 739.51 4.30004 739.51 0.314636L715.315 2.67441C714.897 6.13542 713.43 11.7989 710.916 19.6648C708.403 27.4259 703.113 43.3675 695.048 67.4897C686.983 91.6119 680.228 105.561 674.781 109.337V112.798H701.176V109.337C701.176 104.407 701.49 100.579 702.118 97.8523C702.747 95.0205 704.789 87.6265 708.246 75.6703C712.54 75.5654 718.196 75.513 725.213 75.513C732.231 75.513 737.73 75.5654 741.71 75.6703ZM724.271 22.4966C729.089 34.9772 732.859 45.8846 735.583 55.2189C736.84 59.414 737.782 62.4031 738.411 64.186H711.231C716.468 46.3566 720.814 32.4601 724.271 22.4966Z" fill="white"></path><path d="M741.71 75.6703C748.309 93.7095 751.608 104.932 751.608 109.337V112.798H784.915V109.337C781.878 106.924 779.154 103.673 776.745 99.5828C771.718 91.5071 762.763 69.8495 749.88 34.6101C742.967 15.7319 739.51 4.30004 739.51 0.314636L715.315 2.67441C714.897 6.13542 713.43 11.7989 710.916 19.6648C708.403 27.4259 703.113 43.3675 695.048 67.4897C686.983 91.6119 680.228 105.561 674.781 109.337V112.798H701.176V109.337C701.176 104.407 701.49 100.579 702.118 97.8523C702.747 95.0205 704.789 87.6265 708.246 75.6703C712.54 75.5654 718.196 75.513 725.213 75.513C732.231 75.513 737.73 75.5654 741.71 75.6703ZM724.271 22.4966C729.089 34.9772 732.859 45.8846 735.583 55.2189C736.84 59.414 737.782 62.4031 738.411 64.186H711.231C716.468 46.3566 720.814 32.4601 724.271 22.4966Z" fill="white"></path><path d="M809.672 2.98906C802.34 2.98906 797.208 2.88417 794.275 2.67441V6.13543C796.056 12.1135 796.946 20.3466 796.946 30.8345V87.3119C796.946 96.5413 795.899 103.883 793.804 109.337V112.798H821.77V109.337C820.094 103.883 819.256 96.0169 819.256 85.7387V63.8714C819.78 63.9763 820.67 64.0287 821.927 64.0287L850.206 98.4815C855.967 105.823 859.581 110.595 861.047 112.798H888.541V109.022C885.19 107.973 881.419 105.771 877.229 102.415C873.144 99.0584 867.279 92.9229 859.633 84.0082L841.722 63.0848C851.673 62.1409 859.633 58.7323 865.603 52.8591C871.573 46.9859 874.558 39.2248 874.558 29.5759C874.558 19.8222 870.84 12.9001 863.404 8.80985C856.072 4.71956 845.65 2.67441 832.139 2.67441L809.672 2.98906ZM851.306 32.2503C851.306 39.5919 849.526 45.1505 845.965 48.9261C842.508 52.5969 836.59 54.4323 828.211 54.4323C824.65 54.4323 821.665 54.275 819.256 53.9603C819.256 29.8381 819.361 16.2038 819.57 13.0575C820.827 12.9526 824.807 12.9001 831.51 12.9001C838.319 12.9001 843.294 14.316 846.436 17.1477C849.683 19.8746 851.306 24.9088 851.306 32.2503Z" fill="white"></path><path d="M809.672 2.98906C802.34 2.98906 797.208 2.88417 794.275 2.67441V6.13543C796.056 12.1135 796.946 20.3466 796.946 30.8345V87.3119C796.946 96.5413 795.899 103.883 793.804 109.337V112.798H821.77V109.337C820.094 103.883 819.256 96.0169 819.256 85.7387V63.8714C819.78 63.9763 820.67 64.0287 821.927 64.0287L850.206 98.4815C855.967 105.823 859.581 110.595 861.047 112.798H888.541V109.022C885.19 107.973 881.419 105.771 877.229 102.415C873.144 99.0584 867.279 92.9229 859.633 84.0082L841.722 63.0848C851.673 62.1409 859.633 58.7323 865.603 52.8591C871.573 46.9859 874.558 39.2248 874.558 29.5759C874.558 19.8222 870.84 12.9001 863.404 8.80985C856.072 4.71956 845.65 2.67441 832.139 2.67441L809.672 2.98906ZM851.306 32.2503C851.306 39.5919 849.526 45.1505 845.965 48.9261C842.508 52.5969 836.59 54.4323 828.211 54.4323C824.65 54.4323 821.665 54.275 819.256 53.9603C819.256 29.8381 819.361 16.2038 819.57 13.0575C820.827 12.9526 824.807 12.9001 831.51 12.9001C838.319 12.9001 843.294 14.316 846.436 17.1477C849.683 19.8746 851.306 24.9088 851.306 32.2503Z" fill="white"></path><path d="M883.204 18.249H886.189C898.444 15.5221 908.499 14.0014 916.354 13.6867C916.773 19.0356 916.983 27.1113 916.983 37.9138V78.974C916.983 92.9229 916.25 103.044 914.783 109.337V112.798H941.806V109.337C940.13 103.044 939.293 92.7656 939.293 78.5021V37.2845C939.293 26.7966 939.502 18.9307 939.921 13.6867C948.405 14.0014 958.565 15.5221 970.4 18.249H973.385C973.385 13.5294 973.647 8.18056 974.171 2.20245C953.747 2.51709 938.455 2.6744 928.295 2.6744C918.135 2.6744 902.843 2.51709 882.419 2.20245C882.943 8.18056 883.204 13.5294 883.204 18.249Z" fill="white"></path><path d="M883.204 18.249H886.189C898.444 15.5221 908.499 14.0014 916.354 13.6867C916.773 19.0356 916.983 27.1113 916.983 37.9138V78.974C916.983 92.9229 916.25 103.044 914.783 109.337V112.798H941.806V109.337C940.13 103.044 939.293 92.7656 939.293 78.5021V37.2845C939.293 26.7966 939.502 18.9307 939.921 13.6867C948.405 14.0014 958.565 15.5221 970.4 18.249H973.385C973.385 13.5294 973.647 8.18056 974.171 2.20245C953.747 2.51709 938.455 2.6744 928.295 2.6744C918.135 2.6744 902.843 2.51709 882.419 2.20245C882.943 8.18056 883.204 13.5294 883.204 18.249Z" fill="white"></path><path d="M997.172 91.5595L995.286 90.4583C994.762 90.4583 994.186 90.4583 993.558 90.4583C986.959 90.4583 980.308 91.5595 973.605 93.762L972.034 95.1778C972.034 95.5974 972.034 96.5413 972.034 98.0096C972.034 99.373 972.296 101.89 972.819 105.561C973.448 109.232 974.234 111.854 975.176 113.427L977.061 114.371C986.383 113.532 993.401 112.43 998.114 111.067L999.685 109.651C999.895 108.393 1000 106.924 1000 105.246C1000 103.463 999.79 100.999 999.371 97.8523C998.952 94.7059 998.219 92.6083 997.172 91.5595Z" fill="white"></path><path d="M997.172 91.5595L995.286 90.4583C994.762 90.4583 994.186 90.4583 993.558 90.4583C986.959 90.4583 980.308 91.5595 973.605 93.762L972.034 95.1778C972.034 95.5974 972.034 96.5413 972.034 98.0096C972.034 99.373 972.296 101.89 972.819 105.561C973.448 109.232 974.234 111.854 975.176 113.427L977.061 114.371C986.383 113.532 993.401 112.43 998.114 111.067L999.685 109.651C999.895 108.393 1000 106.924 1000 105.246C1000 103.463 999.79 100.999 999.371 97.8523C998.952 94.7059 998.219 92.6083 997.172 91.5595Z" fill="white"></path></g><defs><clipPath id="clip0_75_2"><rect width="1000" height="115" fill="white"></rect></clipPath></defs></svg> 