<?xml version="1.0" encoding="UTF-8"?> <svg xmlns="http://www.w3.org/2000/svg" width="261" height="30" viewBox="0 0 261 30" fill="none"><path d="M35.5341 1.60055C35.5341 2.8591 35.4248 4.47332 35.2063 6.44323C34.9877 8.41313 34.3729 11.2585 33.3619 14.9795C33.034 16.1559 32.5559 17.7839 31.9274 19.8632C31.3263 21.9152 30.9438 23.2285 30.7799 23.803C28.1022 14.9658 26.4491 9.24761 25.8207 6.64843C25.1922 4.02189 24.796 2.0383 24.6321 0.697673H18.3614C18.2521 4.66484 16.476 12.3666 13.0333 23.803L8.81181 8.74145C7.96478 6.00547 7.54127 3.70725 7.54127 1.84678V0.697673H0V1.60055C0.437175 2.09302 0.87435 2.8591 1.31153 3.89877C1.7487 4.93844 2.3908 6.78522 3.23783 9.43912C6.87185 20.8482 8.72984 27.7018 8.81181 30L15.0825 29.4254C17.5963 19.9316 19.0581 14.487 19.468 13.0917C19.9051 11.6963 20.397 10.1778 20.9434 8.53625L22.132 12.5581C24.7824 21.4774 26.2988 27.2914 26.6813 30L32.9111 29.4254C34.2499 24.4186 35.8347 18.9877 37.6654 13.1327C39.496 7.25034 41.0535 3.40629 42.3377 1.60055V0.697673H35.5341V1.60055Z" fill="#333333"></path><path d="M57.0036 29.9179C61.3754 29.9179 65.0231 28.4542 67.9467 25.5267C70.8976 22.5718 72.3731 18.8372 72.3731 14.3228C72.3731 10.3283 71.1435 6.96306 68.6844 4.22709C66.2253 1.49111 62.7279 0.123117 58.1922 0.123117C53.6565 0.123117 49.9269 1.60055 47.0033 4.5554C44.0797 7.4829 42.6178 11.067 42.6178 15.3078C42.6178 19.5212 43.9157 23.0096 46.5114 25.7729C49.1345 28.5363 52.6319 29.9179 57.0036 29.9179ZM66.1843 15.4309C66.1843 20.301 65.2417 23.6389 63.3563 25.4446C61.9902 26.2107 60.3917 26.5937 58.5611 26.5937C56.7577 26.5937 55.214 26.2654 53.9298 25.6088C52.6456 24.9248 51.6346 24.0082 50.8969 22.8591C50.1864 21.6826 49.6536 20.4104 49.2984 19.0424C48.9705 17.6471 48.8066 15.9918 48.8066 14.0766C48.8066 12.1341 49.0662 10.2873 49.5853 8.53625C50.1318 6.78523 50.8149 5.48564 51.6346 4.63748C52.0991 4.36388 52.8505 4.11765 53.8888 3.89877C54.9271 3.65253 55.9517 3.52941 56.9627 3.52941C59.2032 3.52941 61.0339 4.10397 62.4547 5.25308C63.8755 6.37483 64.8455 7.78386 65.3646 9.48016C65.9111 11.1765 66.1843 13.1601 66.1843 15.4309Z" fill="#333333"></path><path d="M89.9647 29.9179C94.3364 29.9179 97.9841 28.4542 100.908 25.5267C103.859 22.5718 105.334 18.8372 105.334 14.3228C105.334 10.3283 104.105 6.96306 101.645 4.22709C99.1863 1.49111 95.6889 0.123117 91.1533 0.123117C86.6176 0.123117 82.8879 1.60055 79.9643 4.5554C77.0407 7.4829 75.5789 11.067 75.5789 15.3078C75.5789 19.5212 76.8768 23.0096 79.4725 25.7729C82.0955 28.5363 85.5929 29.9179 89.9647 29.9179ZM99.1454 15.4309C99.1454 20.301 98.2027 23.6389 96.3174 25.4446C94.9512 26.2107 93.3528 26.5937 91.5221 26.5937C89.7188 26.5937 88.175 26.2654 86.8908 25.6088C85.6066 24.9248 84.5956 24.0082 83.8579 22.8591C83.1475 21.6826 82.6147 20.4104 82.2595 19.0424C81.9316 17.6471 81.7676 15.9918 81.7676 14.0766C81.7676 12.1341 82.0272 10.2873 82.5464 8.53625C83.0928 6.78523 83.7759 5.48564 84.5956 4.63748C85.0601 4.36388 85.8115 4.11765 86.8498 3.89877C87.8881 3.65253 88.9127 3.52941 89.9237 3.52941C92.1642 3.52941 93.9949 4.10397 95.4157 5.25308C96.8365 6.37483 97.8065 7.78386 98.3257 9.48016C98.8721 11.1765 99.1454 13.1601 99.1454 15.4309Z" fill="#333333"></path><path d="M114.155 0.779754C113.226 0.779754 112.16 0.752393 110.958 0.697673V1.60055C111.423 3.35157 111.655 6.07387 111.655 9.76744V20.3557C111.655 24.0219 111.423 26.7305 110.958 28.4815V29.3844H114.155L121.696 29.4254H122.475C126.655 29.4254 129.948 28.6183 132.352 27.0041C134.292 25.7182 135.768 23.9535 136.779 21.71C137.79 19.4665 138.295 16.9357 138.295 14.1176C138.295 9.54856 136.984 6.16963 134.361 3.98085C131.738 1.76471 127.721 0.656634 122.311 0.656634L114.155 0.779754ZM117.475 13.2969C117.475 8.23529 117.502 5.04788 117.557 3.73461C120.098 3.70725 121.423 3.69357 121.532 3.69357C125.33 3.69357 128.035 4.54172 129.647 6.23803C131.287 7.90698 132.106 10.7524 132.106 14.7743C132.106 19.617 131.191 22.9959 129.36 24.9111C128.049 25.6772 125.685 26.0602 122.27 26.0602C120.931 26.0602 119.374 25.9918 117.598 25.855C117.516 24.9521 117.475 21.5595 117.475 15.6772V13.2969Z" fill="#333333"></path><path d="M142.567 28.5226V29.4254H148.182V28.5226C148.1 26.3611 148.059 23.6936 148.059 20.5198C148.059 17.3187 148.209 13.3105 148.509 8.49521C153.4 21.4364 155.846 28.5499 155.846 29.8358L160.805 29.3434C162.062 24.9932 164.371 18.1122 167.731 8.70041C168.223 13.1874 168.469 17.9754 168.469 23.0643C168.469 25.0889 168.428 26.9083 168.346 28.5226V29.4254H175.109V28.5226C174.371 23.3789 173.838 18.5089 173.51 13.9124C173.21 9.28864 173.06 6.11491 173.06 4.39124C173.06 2.64022 173.073 1.47743 173.101 0.902871V0L166.092 0.738712C165.873 1.94254 165.177 4.47332 164.002 8.33105C162.827 12.1888 161.119 17.223 158.879 23.4337C155.491 14.7332 153.346 9.00137 152.444 6.23803C151.57 3.47469 150.996 1.43639 150.723 0.123117L143.96 0.656634V1.55951C144.069 2.90014 144.124 4.66484 144.124 6.85362C144.124 15.0889 143.605 22.3119 142.567 28.5226Z" fill="#333333"></path><path d="M193.49 19.7401C195.211 24.446 196.072 27.3735 196.072 28.5226V29.4254H204.761V28.5226C203.968 27.8933 203.258 27.0451 202.629 25.9781C201.318 23.8714 198.982 18.2216 195.621 9.02873C193.818 4.10397 192.916 1.12175 192.916 0.0820783L186.604 0.697673C186.495 1.60055 186.112 3.07797 185.457 5.12996C184.801 7.15458 183.421 11.3133 181.317 17.606C179.213 23.8988 177.451 27.5376 176.03 28.5226V29.4254H182.916V28.5226C182.916 27.2367 182.997 26.238 183.161 25.5267C183.325 24.788 183.858 22.8591 184.76 19.7401C185.88 19.7127 187.356 19.699 189.186 19.699C191.017 19.699 192.451 19.7127 193.49 19.7401ZM188.94 5.86867C190.197 9.12449 191.181 11.9699 191.891 14.4049C192.219 15.4993 192.465 16.2791 192.629 16.7442H185.539C186.905 12.093 188.039 8.46785 188.94 5.86867Z" fill="#333333"></path><path d="M211.219 0.779754C209.306 0.779754 207.967 0.752393 207.202 0.697673V1.60055C207.667 3.16005 207.899 5.3078 207.899 8.04377V22.777C207.899 25.1847 207.626 27.0999 207.079 28.5226V29.4254H214.375V28.5226C213.938 27.0999 213.719 25.0479 213.719 22.3666V16.6621C213.856 16.6895 214.088 16.7031 214.416 16.7031L221.793 25.6908C223.296 27.606 224.239 28.8509 224.621 29.4254H231.794V28.4405C230.919 28.1669 229.936 27.5923 228.843 26.7168C227.777 25.8413 226.247 24.2408 224.252 21.9152L219.58 16.4569C222.176 16.2107 224.252 15.3215 225.81 13.7893C227.367 12.2572 228.146 10.2326 228.146 7.71546C228.146 5.171 227.176 3.36525 225.236 2.29822C223.323 1.23119 220.605 0.697673 217.08 0.697673L211.219 0.779754ZM222.08 8.41313C222.08 10.3283 221.616 11.7784 220.687 12.7633C219.785 13.7209 218.241 14.1997 216.055 14.1997C215.126 14.1997 214.348 14.1587 213.719 14.0766C213.719 7.78386 213.746 4.22709 213.801 3.40629C214.129 3.37893 215.167 3.36525 216.916 3.36525C218.692 3.36525 219.99 3.73461 220.81 4.47332C221.657 5.18468 222.08 6.49795 222.08 8.41313Z" fill="#333333"></path><path d="M230.401 4.7606H231.18C234.377 4.04925 237 3.65253 239.049 3.57045C239.158 4.9658 239.213 7.0725 239.213 9.89056V20.6019C239.213 24.2408 239.022 26.881 238.639 28.5226V29.4254H245.689V28.5226C245.252 26.881 245.033 24.1997 245.033 20.4788V9.7264C245.033 6.99042 245.088 4.93844 245.197 3.57045C247.41 3.65253 250.061 4.04925 253.148 4.7606H253.927C253.927 3.52941 253.995 2.13406 254.132 0.574555C248.804 0.656634 244.814 0.697673 242.164 0.697673C239.514 0.697673 235.524 0.656634 230.196 0.574555C230.333 2.13406 230.401 3.52941 230.401 4.7606Z" fill="#333333"></path><path d="M260.132 23.8851L259.64 23.5978C259.503 23.5978 259.353 23.5978 259.189 23.5978C257.468 23.5978 255.733 23.8851 253.984 24.4596L253.574 24.829C253.574 24.9384 253.574 25.1847 253.574 25.5677C253.574 25.9234 253.643 26.58 253.779 27.5376C253.943 28.4952 254.148 29.1792 254.394 29.5896L254.886 29.8358C257.318 29.617 259.148 29.3297 260.378 28.974L260.788 28.6047C260.842 28.2763 260.87 27.8933 260.87 27.4555C260.87 26.9904 260.815 26.3475 260.706 25.5267C260.596 24.7059 260.405 24.1587 260.132 23.8851Z" fill="#333333"></path></svg> 